<!--?xml version="1.0" encoding="utf-8"?-->
<!-- Generator: Adobe Illustrator 19.1.1, SVG Export Plug-In . SVG Version: 6.00 Build 0)  -->
<svg version="1.1" id="_x31_0" xmlns="http://www.w3.org/2000/svg" xmlns:xlink="http://www.w3.org/1999/xlink" x="0px" y="0px" viewBox="0 0 512 512" style="width: 32px; height: 32px; opacity: 1;" xml:space="preserve">
<style type="text/css">
	.st0{fill:#374149;}
</style>
<g>
	<path class="st0" d="M443.34,0H68.66C48.621,0,32.316,16.301,32.316,36.344v439.312C32.316,495.695,48.621,512,68.66,512H443.34
		c20.039,0,36.344-16.305,36.344-36.344V36.344C479.684,16.301,463.379,0,443.34,0z M449.785,475.656
		c0,3.559-2.89,6.446-6.446,6.446H68.66c-3.555,0-6.446-2.886-6.446-6.446V36.344c0-3.562,2.89-6.446,6.446-6.446H443.34
		c3.555,0,6.446,2.883,6.446,6.446V475.656z" style="fill: rgb(75, 75, 75);"></path>
	<polygon class="st0" points="107.762,255.492 107.754,255.84 107.762,255.84 107.762,256 404.246,256 404.246,141.168 
		107.762,141.168 	" style="fill: rgb(75, 75, 75);"></polygon>
	<polygon class="st0" points="313.574,282.23 313.418,282.23 313.418,363.73 313.418,363.981 313.418,363.981 313.418,364.141 
		404.246,364.141 404.246,282.23 313.856,282.23 	" style="fill: rgb(75, 75, 75);"></polygon>
	<polygon class="st0" points="313.418,402.324 313.418,402.359 313.418,402.359 313.418,402.519 404.246,402.519 404.246,389.992 
		313.418,389.992 	" style="fill: rgb(75, 75, 75);"></polygon>
	<polygon class="st0" points="313.574,426.258 313.418,426.258 313.418,438.59 313.418,438.629 313.418,438.629 313.418,438.789 
		404.246,438.789 404.246,426.258 313.856,426.258 	" style="fill: rgb(75, 75, 75);"></polygon>
	<polygon class="st0" points="107.918,282.23 107.762,282.23 107.762,298.125 107.754,298.172 107.762,298.172 107.762,298.332 
		289.379,298.332 289.379,282.23 108.472,282.23 	" style="fill: rgb(75, 75, 75);"></polygon>
	<polygon class="st0" points="107.762,344.875 107.754,344.926 107.762,344.926 107.762,345.086 289.379,345.086 289.379,328.984 
		107.762,328.984 	" style="fill: rgb(75, 75, 75);"></polygon>
	<polygon class="st0" points="107.762,391.633 107.754,391.68 107.762,391.68 107.762,391.84 289.379,391.84 289.379,375.742 
		107.762,375.742 	" style="fill: rgb(75, 75, 75);"></polygon>
	<polygon class="st0" points="107.762,438.386 107.754,438.438 107.762,438.438 107.762,438.594 246.395,438.594 246.395,422.496 
		107.762,422.496 	" style="fill: rgb(75, 75, 75);"></polygon>
	<polygon class="st0" points="313.418,103.114 399.364,103.114 399.364,89.242 313.418,89.242 313.418,102.91 313.418,102.953 
		313.418,102.953 	" style="fill: rgb(75, 75, 75);"></polygon>
	<polygon class="st0" points="107.762,120.426 117.223,120.426 117.223,104.187 117.356,90.867 136.433,120.426 144.879,120.426 
		144.879,71.93 135.41,71.93 135.41,88.086 135.277,101.426 116.207,71.93 107.762,71.93 107.762,120.117 107.754,120.266 
		107.762,120.266 	" style="fill: rgb(75, 75, 75);"></polygon>
	<polygon class="st0" points="188.129,111.981 165.652,111.981 165.652,100.195 184.52,100.195 184.629,100.195 184.793,100.195 
		184.793,91.754 165.652,91.754 165.652,80.379 188.129,80.379 188.129,71.93 156.184,71.93 156.184,120.426 188.129,120.426 	" style="fill: rgb(75, 75, 75);"></polygon>
	<polygon class="st0" points="205.082,120.426 212.988,120.426 217.887,104.289 221.98,91.23 230.832,120.426 238.738,120.426 
		249.059,81.946 251.746,72.094 251.7,72.09 251.746,71.93 241.871,71.93 237.808,88.344 234.231,102.25 225.457,71.93 
		218.371,71.93 213.613,88.359 209.449,102.246 202.02,71.93 194.285,71.93 192.3,71.89 192.316,71.93 192.144,71.93 	" style="fill: rgb(75, 75, 75);"></polygon>
	<path class="st0" d="M271.223,112.39c-2.226,0-4.344-0.297-6.336-0.886c-2-0.59-3.766-1.66-5.32-3.199l-6.126,6.129
		c2.359,2.406,4.985,4.074,7.867,5.004c2.883,0.934,6.164,1.398,9.844,1.398c2.539,0,4.914-0.332,7.117-0.985
		c0.61-0.187,1.024-0.57,1.586-0.797c0.945-0.378,1.82-0.816,2.641-1.32c0.461-0.285,1.07-0.422,1.5-0.75
		c1.602-1.25,2.867-2.777,3.773-4.594c0.906-1.82,1.36-3.906,1.36-6.266c0-2.183-0.29-4.133-0.883-5.859
		c-0.594-1.722-1.546-3.18-2.859-4.359c-1.047-1.043-2.297-1.859-3.742-2.45c-1.461-0.59-3.297-1.046-5.523-1.367l-5.789-0.886
		c-1.047-0.133-1.914-0.359-2.618-0.676c-0.703-0.32-1.313-0.703-1.813-1.156c-0.492-0.5-0.843-1.051-1.046-1.637
		c-0.211-0.594-0.313-1.203-0.313-1.84c0-1.679,0.602-3.121,1.805-4.324c1.203-1.203,3.078-1.805,5.625-1.805
		c1.586,0,3.266,0.191,5.039,0.578c1.774,0.386,3.406,1.305,4.898,2.758l5.774-5.711l0.11-0.102l0,0l0.109-0.113
		c-2.086-2.047-4.374-3.496-6.874-4.356c-2.5-0.867-5.43-1.301-8.79-1.301c-2.633,0-4.992,0.367-7.078,1.094
		c-2.094,0.726-3.86,1.738-5.313,3.031c-1.461,1.293-2.562,2.839-3.344,4.629c-0.766,1.797-1.148,3.781-1.148,5.961
		c0,4.133,1.148,7.309,3.469,9.535c1.094,1.043,2.382,1.898,3.882,2.558c1.5,0.653,3.336,1.145,5.516,1.461l5.789,0.883
		c1.226,0.179,2.133,0.386,2.726,0.617c0.586,0.227,1.133,0.566,1.633,1.016c1,1.004,1.5,2.34,1.5,4.019
		c0,1.958-0.726,3.454-2.179,4.496C276.238,111.867,274.082,112.39,271.223,112.39z" style="fill: rgb(75, 75, 75);"></path>
</g>
</svg>
