<!--?xml version="1.0" encoding="utf-8"?-->
<!-- Generator: Adobe Illustrator 19.1.1, SVG Export Plug-In . SVG Version: 6.00 Build 0)  -->
<svg version="1.1" id="_x31_0" xmlns="http://www.w3.org/2000/svg" xmlns:xlink="http://www.w3.org/1999/xlink" x="0px" y="0px" viewBox="0 0 512 512" style="width: 32px; height: 32px; opacity: 1;" xml:space="preserve">
<style type="text/css">
	.st0{fill:#374149;}
</style>
<g>
	<polygon class="st0" points="360.355,171.77 360.203,171.774 360.351,171.61 295.614,173.836 295.614,243.144 333.863,200.879 	" style="fill: rgb(70, 69, 69);"></polygon>
	<polygon class="st0" points="305.875,254.363 371.18,254.32 371.18,213.16 371.297,183.011 371.18,183.137 371.18,182.903 	" style="fill: rgb(70, 69, 69);"></polygon>
	<polygon class="st0" points="451.008,169.129 451.012,168.652 451.008,168.652 451.008,168.492 394.742,170.426 394.742,185 
		451.008,183.395 	" style="fill: rgb(70, 69, 69);"></polygon>
	<polygon class="st0" points="451.008,204.09 451.008,203.93 394.742,205.082 394.742,219.652 451.008,218.832 451.008,204.309 
		451.008,204.09 	" style="fill: rgb(70, 69, 69);"></polygon>
	<polygon class="st0" points="434.446,239.676 434.446,239.633 434.446,239.633 434.446,239.473 394.742,239.735 394.742,254.305 
		434.446,254.278 	" style="fill: rgb(70, 69, 69);"></polygon>
	<polygon class="st0" points="295.774,285.527 295.774,285.531 295.614,285.527 295.614,299.278 451.008,302.09 451.008,287.449 
		298.129,285.559 	" style="fill: rgb(70, 69, 69);"></polygon>
	<polygon class="st0" points="295.774,324.411 295.774,324.418 295.614,324.414 295.614,338.16 394.742,341.571 394.742,327.25 
		298.809,324.504 	" style="fill: rgb(70, 69, 69);"></polygon>
	<polygon class="st0" points="67.867,254.144 67.867,254.309 187.344,254.387 210.168,254.403 210.168,173.582 73.152,168.867 
		68.027,168.683 68.027,168.691 67.867,168.687 67.867,239.43 67.867,254.102 67.867,254.144 	" style="fill: rgb(70, 69, 69);"></polygon>
	<polygon class="st0" points="210.168,285.739 210.168,285.582 67.867,287.34 67.867,301.973 210.168,299.395 210.168,285.863 
		210.172,285.739 	" style="fill: rgb(70, 69, 69);"></polygon>
	<polygon class="st0" points="152.809,326.347 152.809,326.191 67.867,328.621 67.867,343.262 152.809,340.34 152.809,326.723 
		152.813,326.347 	" style="fill: rgb(70, 69, 69);"></polygon>
	<path class="st0" d="M507.102,67.035L267.817,84.422L256,85.278l-11.817-0.856L4.898,67.035C2.254,66.84,0,68.938,0,71.59v368.821
		c0,2.652,2.254,4.746,4.898,4.554l239.285-17.387L256,426.719l11.817,0.859l239.285,17.387c2.649,0.191,4.898-1.902,4.898-4.554
		V71.59C512,68.938,509.75,66.84,507.102,67.035z M483.386,414.637l-215.57-13.27V110.633l215.582-13.274v298.274L483.386,414.637z
		 M28.519,414.637V97.355l215.664,13.278v290.734l-202.695,12.48L28.519,414.637z" style="fill: rgb(70, 69, 69);"></path>
</g>
</svg>
